<svg width="32" height="32" viewBox="0 0 32 32" fill="none" xmlns="http://www.w3.org/2000/svg">
<g clip-path="url(#clip0_120_688)">
<path d="M16 0C7.163 0 0 7.163 0 16C0 24.837 7.163 32 16 32C24.837 32 32 24.837 32 16C32 7.163 24.837 0 16 0ZM16 29.86C8.345 29.86 2.14 23.655 2.14 16C2.14 8.345 8.345 2.14 16 2.14C23.655 2.14 29.86 8.345 29.86 16C29.849 23.65 23.65 29.849 16.001 29.86H16ZM16.32 10.56L14.92 8.96L6.86 16L14.86 23.04L16.26 21.44L11.34 17.06H24.46V14.94H11.34L16.32 10.56Z" fill="#0076CE"/>
</g>
<defs>
<clipPath id="clip0_120_688">
<rect width="32" height="32" fill="white"/>
</clipPath>
</defs>
</svg>
