<svg width="75" height="39" viewBox="0 0 75 39" fill="none" xmlns="http://www.w3.org/2000/svg">
<path d="M71.6582 3.03551V11.5405C71.6582 11.5599 71.6388 11.5599 71.6388 11.5405C70.439 10.0135 68.3296 9.12433 65.7751 9.12433C60.8983 9.12433 58.0923 12.4877 57.802 18.2286C57.802 18.2286 57.7826 18.8471 57.7826 18.9244C57.7439 23.9695 56.5054 26.2697 53.9509 26.2697C52.1318 26.2697 50.3707 25.6898 50.5449 23.3123C50.5642 23.061 50.7771 18.1513 50.0417 14.7879C49.3063 11.3859 46.5777 9.08567 42.5331 9.08567C38.4691 9.08567 33.8246 12.0431 34.3664 20.3355C34.3664 20.9927 34.5986 22.4038 33.6117 24.2401C32.915 25.5352 31.5603 26.3857 28.4833 26.2697L21.4778 26.347C16.8333 26.347 15.5947 22.3651 15.5173 20.6061L15.6141 20.5095H27.7092C28.2124 20.5095 28.7736 20.4322 29.1413 20.1229C29.7219 19.6203 29.7025 19.1177 29.7025 18.5572C29.7025 13.6861 27.1287 10.1488 23.0067 9.33696C22.4454 9.22098 21.8649 9.16299 21.3037 9.16299C18.9427 9.16299 16.7172 9.78154 15.0142 11.5019C13.2918 13.2415 12.3436 15.851 12.3436 18.2866V19.311C12.3436 21.9592 13.137 24.4527 14.4723 26.3277L9.92454 26.3663C6.46049 26.3663 3.65441 23.8921 3.65441 20.4321V3.01618C3.65441 2.14635 2.95773 1.45048 2.08688 1.45048C1.21603 1.45048 0.5 2.16568 0.5 3.03551V20.8961C0.5 25.6318 4.3511 29.4591 9.07304 29.4591H21.4004H24.4194H29.3155C33.1472 29.4591 35.0825 27.9127 36.0694 26.3277H36.0888C37.7337 28.5119 40.1721 29.4204 42.5137 29.4204C45.7649 29.4204 47.2357 27.99 48.1259 26.6756H48.1452C49.2096 28.6666 51.2609 29.4397 53.6219 29.4397C56.3699 29.4397 58.2471 28.6859 59.3889 26.3277H59.4082C60.8403 28.338 63.0271 29.4591 65.7751 29.4591H66.1428C70.9228 29.4591 74.8319 25.5545 74.8319 20.7801V2.97752C74.8319 2.12702 74.1353 1.43115 73.2838 1.43115C72.3936 1.43115 71.6582 2.14635 71.6582 3.03551ZM60.937 18.8665C61.0144 15.7737 62.0208 12.2944 66.1621 12.2944C70.4777 12.2944 71.3872 16.1023 71.3872 19.2917C71.3872 22.4811 70.4777 26.289 66.1621 26.289C61.9434 26.289 60.9757 22.6744 60.937 19.5237C60.937 19.4463 60.937 19.3884 60.937 19.311V18.8665ZM47.3518 19.2337C47.3518 23.8342 45.6488 26.2697 42.4169 26.2697C39.3786 26.2697 37.4821 23.5829 37.4821 19.2337C37.4821 14.9039 39.3786 12.1977 42.4169 12.1977C45.6488 12.2171 47.3518 14.6333 47.3518 19.2337ZM15.7109 17.2234C15.7689 15.3678 16.9494 12.333 21.0327 12.333C22.6777 12.333 23.9743 12.739 24.8645 13.5315C26.2191 14.7492 26.3739 16.5662 26.3739 17.3008C26.3739 17.3008 26.3739 17.3008 26.3546 17.3008H15.7883L15.7109 17.2234Z" fill="white"/>
<path d="M53.35 31.5081C52.9436 31.1795 52.4598 31.0636 51.976 31.1795C51.7051 31.2375 51.4535 31.3922 51.2406 31.6048C49.2474 33.4991 46.7703 34.6782 44.061 35.0261C43.6933 35.0648 43.3062 35.1034 42.9385 35.1228C42.7644 35.1228 42.5902 35.1421 42.3967 35.1421C39.2422 35.1421 36.2233 33.9823 33.843 31.8561C33.5527 31.5855 33.2237 31.4502 32.8754 31.4115C32.3142 31.3728 31.7916 31.6241 31.482 32.0687C31.0175 32.7259 31.1143 33.6344 31.6949 34.1563C34.6751 36.8431 38.4488 38.2928 42.3967 38.2928C42.6095 38.2928 42.8418 38.2928 43.0546 38.2735C43.5191 38.2542 43.9835 38.2155 44.448 38.1575C47.854 37.7129 50.9697 36.2246 53.4468 33.847C53.7564 33.5377 53.9306 33.1125 53.9306 32.6679C53.9112 32.204 53.6984 31.7981 53.35 31.5081Z" fill="#F2AF00"/>
<path d="M56.5439 8.91187C53.5637 3.65422 47.9903 0.542157 41.9717 0.793442C41.7201 0.812771 41.4879 0.812771 41.2363 0.8321C36.0693 1.27668 31.4247 4.21478 28.8122 8.71858C28.4445 9.35645 28.5606 10.149 29.0831 10.6322L29.1218 10.6709C29.4315 10.9608 29.8185 11.1154 30.2442 11.0961C30.7861 11.0768 31.2699 10.7868 31.5408 10.3229C33.6502 6.7083 37.3852 4.35009 41.5266 3.98283C41.7201 3.9635 41.9136 3.94417 42.1072 3.94417C46.9452 3.75087 51.4349 6.26372 53.8153 10.4969C54.0862 10.9801 54.6087 11.2894 55.1699 11.2894C55.1893 11.2894 55.2086 11.2894 55.228 11.2894C55.8666 11.2701 56.4278 10.8642 56.6213 10.2456L56.6407 10.1876C56.7955 9.76237 56.7568 9.29847 56.5439 8.91187Z" fill="#F2AF00"/>
</svg>
