<svg width="58" height="58" viewBox="0 0 58 58" fill="none" xmlns="http://www.w3.org/2000/svg">
<path d="M45.4833 13.9735C43.1201 13.3321 40.4972 14.2146 38.2371 16.4141C37.1819 17.4407 36.1673 18.8775 35.6659 20.0549C34.6725 22.3796 34.713 24.6548 35.769 26.2497C36.3669 27.1536 37.1601 27.6885 38.1069 27.835C38.7704 27.9375 39.7654 27.8974 40.4889 27.7384C42.4086 27.3208 44.2998 26.0887 45.7417 24.3178C46.2357 23.7103 46.4551 23.3855 46.8717 22.6345C47.6743 21.2008 48.0645 20.0475 48.1504 18.8812C48.2799 17.1071 47.7532 15.6065 46.6654 14.6454C46.3655 14.383 45.8008 14.0635 45.4833 13.9735Z" fill="white"/>
<path d="M32.1466 6.79006C30.8803 6.36247 29.2721 6.69999 27.8755 7.68559C27.1132 8.22248 26.5538 8.83267 25.8773 9.86677C25.5793 10.3187 25.1737 11.0836 24.96 11.586C23.7498 14.4388 23.6976 17.3762 24.8208 19.6557C25.0454 20.1131 25.4794 20.7598 25.8128 21.13C26.049 21.3923 26.117 21.4453 26.4328 21.639C26.8531 21.8943 27.1832 22.0222 27.6287 22.1052C28.3187 22.2341 28.964 22.1948 29.6702 21.9797C31.0689 21.5537 32.3923 20.4773 33.43 18.9253C33.8564 18.2844 34.3562 17.2575 34.6517 16.4008C35.8587 12.9299 35.4103 9.61916 33.4692 7.64032C33.0808 7.24755 32.6229 6.95213 32.1466 6.79006Z" fill="white"/>
<path d="M47.8472 29.6057C45.7458 28.8723 43.312 29.3163 41.0951 30.8417C40.0739 31.5459 39.3919 32.2008 38.519 33.3242C38.2076 33.7262 38.1033 33.8858 37.8214 34.3893C37.4765 35.0055 37.3401 35.3296 37.1849 35.8953C36.7669 37.4133 36.9357 38.9295 37.6321 39.9459C38.0123 40.5009 38.4395 40.8647 39.0098 41.1136C40.3927 41.7218 41.9092 41.7563 43.5767 41.2189C45.4151 40.6245 47.1586 39.3612 48.4166 37.7176C48.7313 37.3097 49.268 36.4582 49.4485 36.0887C50.3738 34.1877 50.3227 32.0385 49.3205 30.7098C48.9319 30.1967 48.4087 29.8032 47.8472 29.6057Z" fill="white"/>
<path d="M17.7185 13.9907C16.3497 13.5182 14.7958 13.8392 13.742 14.8162C13.3689 15.1608 12.9175 15.6988 12.562 16.2199C11.2716 18.1093 10.6916 20.7283 11.0433 23.0783C11.3075 24.8332 12.0593 26.361 13.2193 27.5016C14.1962 28.4596 15.4037 28.7307 16.7934 28.3074C18.0336 27.9296 19.0899 26.9617 19.9637 25.4006C20.3036 24.7934 20.4607 24.4458 20.6725 23.826C21.4036 21.7015 21.377 19.2672 20.6009 17.2529C20.2443 16.3271 19.6304 15.3175 19.1437 14.8588C18.7609 14.4963 18.2091 14.1607 17.7185 13.9907Z" fill="white"/>
<path d="M28.5593 29.4315C27.4965 28.996 26.3555 28.7268 25.1361 28.6314C23.2705 28.4896 21.2046 28.8265 19.5916 29.5414C16.1099 31.0859 13.1165 33.1869 11.0707 35.5202C10.9451 35.6641 10.7472 35.8767 10.632 35.9953C10.0369 36.6091 9.6108 37.444 9.46074 38.2957C9.21896 39.6666 9.58899 41.038 10.4557 42.005C10.9739 42.5819 11.9365 43.1093 13.1357 43.4689C13.9156 43.7055 14.5339 43.8219 16.3307 44.0731C18.8329 44.4191 19.4883 44.5831 20.9484 45.2146C21.6011 45.4974 21.7146 45.5562 22.1238 45.8247C23.1719 46.5079 23.8977 47.2304 25.1643 48.8446C26.2864 50.2744 26.9194 51.062 27.0927 51.2352C28.8197 52.9795 31.2868 53.3681 32.89 52.1476C33.5932 51.6091 34.2726 50.4758 34.6263 49.2403C34.9692 48.0375 35.1872 45.8973 35.1218 44.3374C34.9401 39.9331 34.5203 37.309 33.6302 34.9953C32.7925 32.8229 31.8224 31.477 30.3062 30.3958C29.88 30.0907 29.0539 29.6347 28.5593 29.4315Z" fill="white"/>
</svg>
