<svg width="251" height="33" viewBox="0 0 251 33" fill="none" xmlns="http://www.w3.org/2000/svg">
<path d="M79.7342 20.7713V25.4297H64.6008V2.00226H69.9226V20.7713H79.7342ZM9.77587 25.4297C15.2332 25.4297 19.8197 21.6991 21.1356 16.6734L34.4113 27.0341L47.6676 16.6928V25.4491H62.801V20.7906H52.9894V2.02159H47.6482V10.7779L34.9338 20.7133L32.089 18.4904L38.185 13.7353L44.8228 8.555L41.0297 5.59757L28.3153 15.533L25.4705 13.3101L38.185 3.37467L34.3919 0.417236L21.1356 10.7779C19.8197 5.73288 15.2332 2.02159 9.77587 2.02159H0.273926V25.4491H9.77587V25.4297ZM5.59579 20.7713V6.6607H9.77587C13.3173 6.6607 16.1815 9.81142 16.1815 13.716C16.1815 17.6206 13.3173 20.7713 9.77587 20.7713H5.59579Z" fill="white"/>
<path d="M97.2851 3.93496H90.028L89.6991 4.26357V25.0042L89.3701 25.3328H88.0541L87.7251 25.0042V4.2829L87.3961 3.9543H80.139L79.8101 3.62569V2.63988L80.139 2.31128H97.2851L97.6141 2.63988V3.62569L97.2851 3.93496Z" fill="white"/>
<path d="M96.6855 17.7749L96.3565 18.1035C96.3565 20.0751 97.6725 24.0377 101.969 24.0377C104.601 24.0377 105.917 22.7232 106.575 20.7516L106.904 20.423H108.219L108.548 20.7516C108.219 22.7232 106.575 25.7 101.949 25.7C96.6662 25.7 94.3633 21.7568 94.3633 17.137V16.4798C94.3633 11.8793 96.9952 8.57397 101.62 8.57397C106.246 8.57397 108.877 11.86 108.877 16.4798V17.4656L108.548 17.7942H96.6855V17.7749ZM106.904 15.8032C106.904 13.503 105.588 10.1977 101.62 10.1977C97.6532 10.1977 96.3372 13.4837 96.3372 15.8032L96.6662 16.1318H106.555L106.904 15.8032Z" fill="white"/>
<path d="M118.166 24.0377C121.456 24.0377 122.772 22.066 123.12 20.0944L123.449 19.7658H124.765L125.094 20.0944C124.765 23.3805 122.133 25.7 118.166 25.7C113.889 25.7 110.58 23.0712 110.58 17.137C110.58 11.2028 113.87 8.57397 118.166 8.57397C122.114 8.57397 124.765 10.8742 125.094 14.1796L124.765 14.5082H123.449L123.12 14.1796C122.791 12.2079 121.475 10.2363 118.166 10.2363C114.876 10.2363 112.554 12.5365 112.554 17.1563C112.554 21.7761 114.857 24.0377 118.166 24.0377Z" fill="white"/>
<path d="M140.964 25.3522H139.648L139.319 25.0236V15.1462C139.319 11.8601 137.674 10.1978 135.042 10.1978C131.423 10.1978 129.759 12.498 129.759 16.132V25.0236L129.43 25.3522H128.114L127.785 25.0236V2.6206L128.114 2.29199H129.43L129.759 2.6206V11.1836H130.088C131.075 9.54059 133.049 8.55478 135.371 8.55478C138.99 8.55478 141.312 10.855 141.312 15.1462V25.0236L140.964 25.3522Z" fill="white"/>
<path d="M157.8 25.3524H156.485L156.156 25.0238V15.1463C156.156 11.8603 154.511 10.1979 151.879 10.1979C148.26 10.1979 146.596 12.4982 146.596 16.1321V25.0238L146.267 25.3524H144.951L144.622 25.0238V9.21214L144.951 8.88353H145.938L146.267 9.21214L146.596 11.1838H146.925C147.911 9.54074 149.885 8.55493 152.208 8.55493C155.827 8.55493 158.149 10.8552 158.149 15.1463V25.0238L157.8 25.3524Z" fill="white"/>
<path d="M160.838 17.1179C160.838 11.5124 164.128 8.55493 168.424 8.55493C172.701 8.55493 176.011 11.5124 176.011 17.1179C176.011 22.7235 172.721 25.681 168.424 25.681C164.128 25.681 160.838 22.7042 160.838 17.1179ZM162.812 17.1179C162.812 21.3898 165.115 24.0379 168.424 24.0379C171.714 24.0379 174.037 21.4091 174.037 17.1179C174.037 12.8268 171.734 10.1979 168.424 10.1979C165.115 10.1979 162.812 12.8268 162.812 17.1179Z" fill="white"/>
<path d="M179.63 25.3522H178.314L177.985 25.0236V2.6206L178.314 2.29199H179.63L179.959 2.6206V25.0043L179.63 25.3522Z" fill="white"/>
<path d="M182.647 17.1179C182.647 11.5124 185.937 8.55493 190.233 8.55493C194.51 8.55493 197.819 11.5124 197.819 17.1179C197.819 22.7235 194.529 25.681 190.233 25.681C185.937 25.681 182.647 22.7042 182.647 17.1179ZM184.621 17.1179C184.621 21.3898 186.924 24.0379 190.233 24.0379C193.542 24.0379 195.845 21.4091 195.845 17.1179C195.845 12.8268 193.542 10.1979 190.233 10.1979C186.924 10.1979 184.621 12.8268 184.621 17.1179Z" fill="white"/>
<path d="M211.695 23.0521C211.037 24.3665 209.392 25.681 206.412 25.681C201.806 25.681 199.483 22.0663 199.483 17.1179C199.483 12.1696 201.786 8.55493 206.412 8.55493C209.372 8.55493 211.017 9.86934 211.695 11.1838H212.024L212.353 9.21214L212.682 8.88353H213.669L213.998 9.21214V23.0328C213.998 29.6242 211.366 32.253 207.069 32.253C203.122 32.253 201.128 30.2814 200.799 27.6526L201.128 27.324H202.444L202.773 27.6526C203.102 29.2956 204.089 30.61 207.05 30.61C210.998 30.61 212.004 27.324 212.004 23.0328H211.695V23.0521ZM212.024 17.1179C212.024 12.5175 210.05 10.1979 206.74 10.1979C203.431 10.1979 201.457 12.4982 201.457 17.1179C201.457 21.7377 203.431 24.0379 206.74 24.0379C210.05 24.0379 212.024 21.7184 212.024 17.1179Z" fill="white"/>
<path d="M218.973 6.25456H217.657L217.328 5.92595V3.95434L217.657 3.62573H218.973L219.302 3.95434V5.92595L218.973 6.25456ZM218.973 25.3522H217.657L217.328 25.0236V9.21199L217.657 8.88338H218.973L219.302 9.21199V25.0236L218.973 25.3522Z" fill="white"/>
<path d="M224.313 17.7749L223.984 18.1035C223.984 20.0751 225.299 24.0377 229.596 24.0377C232.228 24.0377 233.544 22.7232 234.201 20.7516L234.53 20.423H235.846L236.175 20.7516C235.846 22.7232 234.201 25.7 229.576 25.7C224.293 25.7 221.99 21.7568 221.99 17.137V16.4798C221.99 11.8793 224.622 8.57397 229.247 8.57397C233.853 8.57397 236.504 11.86 236.504 16.4798V17.4656L236.175 17.7942H224.313V17.7749ZM234.53 15.8032C234.53 13.503 233.215 10.1977 229.247 10.1977C225.299 10.1977 223.964 13.4837 223.964 15.8032L224.293 16.1318H234.182L234.53 15.8032Z" fill="white"/>
<path d="M244.111 25.6807C240.163 25.6807 237.841 23.3805 237.841 20.4037L238.17 20.0751H239.486L239.815 20.4037C239.815 22.3753 241.131 24.0183 244.092 24.0183C247.381 24.0183 248.368 22.7039 248.368 21.0609C248.368 18.4321 246.723 18.1035 243.414 17.4463C240.124 16.7891 238.131 15.4746 238.131 12.8458C238.131 10.5456 240.105 8.57397 243.743 8.57397C247.033 8.57397 249.684 9.88839 249.684 13.1744L249.355 13.503H248.039L247.71 13.1744C247.71 11.5314 246.723 10.217 243.763 10.217C241.46 10.217 240.144 11.2028 240.144 12.8458C240.144 15.146 242.118 15.4746 245.427 16.1318C248.717 16.7891 250.381 18.1035 250.381 21.0802C250.381 23.7091 248.388 25.6807 244.111 25.6807Z" fill="white"/>
</svg>
