<svg width="225" height="48" viewBox="0 0 225 48" fill="none" xmlns="http://www.w3.org/2000/svg">
<path d="M110.994 26.5851V29.3057H102.167V15.6237H105.271V26.5851H110.994ZM70.1854 29.3057C73.3688 29.3057 76.0443 27.127 76.8119 24.1919L84.556 30.2427L92.2889 24.2032V29.317H101.117V26.5964H95.3933V15.635H92.2776V20.7488L84.8608 26.5512L83.2014 25.253L86.7573 22.476L90.6294 19.4506L88.4168 17.7234L81.0001 23.5258L79.3406 22.2276L86.7573 16.4252L84.5447 14.698L76.8119 20.7488C76.0443 17.8024 73.3688 15.635 70.1854 15.635H64.6426V29.317H70.1854V29.3057ZM67.747 26.5851V18.3443H70.1854C72.2512 18.3443 73.922 20.1844 73.922 22.4647C73.922 24.745 72.2512 26.5851 70.1854 26.5851H67.747Z" fill="white"/>
<path d="M121.233 16.7525H117L116.808 16.9444V29.0573L116.616 29.2492H115.849L115.657 29.0573V16.9557L115.465 16.7637H111.231L111.04 16.5718V15.9961L111.231 15.8042H121.233L121.425 15.9961V16.5718L121.233 16.7525Z" fill="white"/>
<path d="M120.883 24.8354L120.692 25.0273C120.692 26.1788 121.459 28.493 123.965 28.493C125.501 28.493 126.268 27.7253 126.652 26.5739L126.844 26.382H127.612L127.803 26.5739C127.612 27.7253 126.652 29.4638 123.954 29.4638C120.872 29.4638 119.529 27.1609 119.529 24.4629V24.079C119.529 21.3923 121.064 19.4619 123.762 19.4619C126.46 19.4619 127.995 21.381 127.995 24.079V24.6548L127.803 24.8467H120.883V24.8354ZM126.844 23.6839C126.844 22.3406 126.076 20.4102 123.762 20.4102C121.448 20.4102 120.68 22.3293 120.68 23.6839L120.872 23.8758H126.641L126.844 23.6839Z" fill="white"/>
<path d="M133.414 28.493C135.333 28.493 136.101 27.3415 136.304 26.19L136.496 25.9981H137.263L137.455 26.19C137.263 28.1091 135.728 29.4638 133.414 29.4638C130.919 29.4638 128.989 27.9285 128.989 24.4629C128.989 20.9972 130.908 19.4619 133.414 19.4619C135.717 19.4619 137.263 20.8053 137.455 22.7357L137.263 22.9276H136.496L136.304 22.7357C136.112 21.5842 135.344 20.4328 133.414 20.4328C131.495 20.4328 130.14 21.7761 130.14 24.4741C130.14 27.1722 131.484 28.493 133.414 28.493Z" fill="white"/>
<path d="M146.712 29.2605H145.944L145.753 29.0686V23.3C145.753 21.3809 144.793 20.4101 143.258 20.4101C141.147 20.4101 140.176 21.7535 140.176 23.8758V29.0686L139.984 29.2605H139.216L139.024 29.0686V15.9849L139.216 15.793H139.984L140.176 15.9849V20.9858H140.368C140.944 20.0263 142.095 19.4505 143.45 19.4505C145.561 19.4505 146.915 20.7939 146.915 23.3V29.0686L146.712 29.2605Z" fill="white"/>
<path d="M156.533 29.2604H155.766L155.574 29.0685V23.2999C155.574 21.3808 154.614 20.41 153.079 20.41C150.968 20.41 149.997 21.7534 149.997 23.8757V29.0685L149.805 29.2604H149.038L148.846 29.0685V19.8343L149.038 19.6423H149.613L149.805 19.8343L149.997 20.9857H150.189C150.765 20.0262 151.916 19.4504 153.271 19.4504C155.382 19.4504 156.737 20.7938 156.737 23.2999V29.0685L156.533 29.2604Z" fill="white"/>
<path d="M158.306 24.4514C158.306 21.1776 160.225 19.4504 162.731 19.4504C165.226 19.4504 167.156 21.1776 167.156 24.4514C167.156 27.7251 165.237 29.4523 162.731 29.4523C160.225 29.4523 158.306 27.7138 158.306 24.4514ZM159.457 24.4514C159.457 26.9462 160.8 28.4928 162.731 28.4928C164.65 28.4928 166.005 26.9575 166.005 24.4514C166.005 21.9453 164.661 20.41 162.731 20.41C160.8 20.41 159.457 21.9453 159.457 24.4514Z" fill="white"/>
<path d="M169.267 29.2605H168.5L168.308 29.0686V15.9849L168.5 15.793H169.267L169.459 15.9849V29.0573L169.267 29.2605Z" fill="white"/>
<path d="M171.028 24.4514C171.028 21.1776 172.947 19.4504 175.454 19.4504C177.948 19.4504 179.879 21.1776 179.879 24.4514C179.879 27.7251 177.96 29.4523 175.454 29.4523C172.947 29.4523 171.028 27.7138 171.028 24.4514ZM172.18 24.4514C172.18 26.9462 173.523 28.4928 175.454 28.4928C177.384 28.4928 178.727 26.9575 178.727 24.4514C178.727 21.9453 177.384 20.41 175.454 20.41C173.523 20.41 172.18 21.9453 172.18 24.4514Z" fill="white"/>
<path d="M187.973 27.917C187.589 28.6847 186.629 29.4523 184.891 29.4523C182.204 29.4523 180.85 27.3413 180.85 24.4514C180.85 21.5614 182.193 19.4504 184.891 19.4504C186.618 19.4504 187.578 20.2181 187.973 20.9857H188.165L188.357 19.8343L188.549 19.6423H189.124L189.316 19.8343V27.9058C189.316 31.7552 187.781 33.2905 185.275 33.2905C182.972 33.2905 181.809 32.1391 181.617 30.6038L181.809 30.4119H182.577L182.769 30.6038C182.961 31.5633 183.536 32.331 185.264 32.331C187.566 32.331 188.153 30.4119 188.153 27.9058H187.973V27.917ZM188.165 24.4514C188.165 21.7646 187.013 20.41 185.083 20.41C183.153 20.41 182.001 21.7534 182.001 24.4514C182.001 27.1494 183.153 28.4928 185.083 28.4928C187.013 28.4928 188.165 27.1381 188.165 24.4514Z" fill="white"/>
<path d="M192.217 18.1071H191.45L191.258 17.9151V16.7637L191.45 16.5718H192.217L192.409 16.7637V17.9151L192.217 18.1071ZM192.217 29.2604H191.45L191.258 29.0685V19.8342L191.45 19.6423H192.217L192.409 19.8342V29.0685L192.217 29.2604Z" fill="white"/>
<path d="M195.333 24.8354L195.141 25.0273C195.141 26.1788 195.909 28.493 198.415 28.493C199.95 28.493 200.718 27.7253 201.102 26.5739L201.294 26.382H202.061L202.253 26.5739C202.061 27.7253 201.102 29.4638 198.404 29.4638C195.322 29.4638 193.979 27.1609 193.979 24.4629V24.079C193.979 21.3923 195.514 19.4619 198.212 19.4619C200.899 19.4619 202.445 21.381 202.445 24.079V24.6548L202.253 24.8467H195.333V24.8354ZM201.294 23.6839C201.294 22.3406 200.526 20.4102 198.212 20.4102C195.909 20.4102 195.13 22.3293 195.13 23.6839L195.322 23.8758H201.09L201.294 23.6839Z" fill="white"/>
<path d="M206.882 29.4525C204.579 29.4525 203.224 28.1091 203.224 26.3707L203.416 26.1788H204.184L204.376 26.3707C204.376 27.5221 205.143 28.4817 206.87 28.4817C208.789 28.4817 209.365 27.714 209.365 26.7545C209.365 25.2192 208.406 25.0273 206.475 24.6435C204.556 24.2597 203.393 23.492 203.393 21.9567C203.393 20.6134 204.545 19.4619 206.667 19.4619C208.586 19.4619 210.133 20.2296 210.133 22.1486L209.941 22.3406H209.173L208.981 22.1486C208.981 21.1891 208.406 20.4215 206.678 20.4215C205.335 20.4215 204.567 20.9972 204.567 21.9567C204.567 23.3001 205.719 23.492 207.649 23.8758C209.568 24.2597 210.539 25.0273 210.539 26.7658C210.539 28.301 209.377 29.4525 206.882 29.4525Z" fill="white"/>
<path d="M52.0329 15.0593V20.0264C52.0329 20.0376 52.0216 20.0376 52.0216 20.0264C51.3217 19.1345 50.0912 18.6153 48.6011 18.6153C45.7563 18.6153 44.1194 20.5795 43.9501 23.9323C43.9501 23.9323 43.9388 24.2935 43.9388 24.3387C43.9162 27.2851 43.1937 28.6284 41.7036 28.6284C40.6425 28.6284 39.6152 28.2898 39.7168 26.9012C39.7281 26.7545 39.8522 23.8871 39.4233 21.9229C38.9943 19.936 37.4026 18.5927 35.0432 18.5927C32.6726 18.5927 29.9632 20.3199 30.2793 25.1628C30.2793 25.5466 30.4148 26.3707 29.8391 27.4431C29.4327 28.1995 28.6425 28.6962 26.8475 28.6284L22.761 28.6736C20.0517 28.6736 19.3292 26.3481 19.284 25.3208L19.3405 25.2644H26.396C26.6895 25.2644 27.0169 25.2192 27.2314 25.0386C27.57 24.7451 27.5587 24.4516 27.5587 24.1242C27.5587 21.2794 26.0573 19.2136 23.6528 18.7394C23.3254 18.6717 22.9868 18.6378 22.6594 18.6378C21.2822 18.6378 19.9839 18.9991 18.9905 20.0038C17.9858 21.0198 17.4327 22.5438 17.4327 23.9662V24.5645C17.4327 26.111 17.8955 27.5673 18.6744 28.6623L16.0216 28.6849C14.0009 28.6849 12.364 27.2399 12.364 25.2192V15.048C12.364 14.54 11.9576 14.1336 11.4496 14.1336C10.9416 14.1336 10.5239 14.5513 10.5239 15.0593V25.4901C10.5239 28.2559 12.7704 30.4911 15.5249 30.4911H22.7158H24.4769H27.333C29.5681 30.4911 30.697 29.588 31.2728 28.6623H31.284C32.2436 29.9379 33.666 30.4685 35.0319 30.4685C36.9284 30.4685 37.7864 29.6331 38.3057 28.8655H38.317C38.9378 30.0282 40.1345 30.4798 41.5117 30.4798C43.1147 30.4798 44.2097 30.0395 44.8758 28.6623H44.8871C45.7224 29.8363 46.9981 30.4911 48.6011 30.4911H48.8156C51.6039 30.4911 53.8842 28.2107 53.8842 25.4224V15.0254C53.8842 14.5287 53.4778 14.1223 52.9811 14.1223C52.4618 14.1223 52.0329 14.54 52.0329 15.0593ZM45.7789 24.3048C45.824 22.4986 46.411 20.4666 48.8268 20.4666C51.3442 20.4666 51.8748 22.6905 51.8748 24.5532C51.8748 26.4158 51.3442 28.6397 48.8268 28.6397C46.3659 28.6397 45.8014 26.5287 45.7789 24.6886C45.7789 24.6435 45.7789 24.6096 45.7789 24.5645V24.3048ZM37.8541 24.5193C37.8541 27.206 36.8607 28.6284 34.9755 28.6284C33.2031 28.6284 32.0968 27.0593 32.0968 24.5193C32.0968 21.9906 33.2031 20.4102 34.9755 20.4102C36.8607 20.4215 37.8541 21.8326 37.8541 24.5193ZM19.3969 23.3453C19.4308 22.2615 20.1194 20.4892 22.5013 20.4892C23.4609 20.4892 24.2172 20.7263 24.7365 21.1891C25.5267 21.9003 25.6171 22.9614 25.6171 23.3904C25.6171 23.3904 25.6171 23.3904 25.6058 23.3904H19.4421L19.3969 23.3453Z" fill="white"/>
<path d="M41.3536 31.6877C41.1166 31.4958 40.8344 31.4281 40.5521 31.4958C40.3941 31.5297 40.2473 31.62 40.1232 31.7441C38.9604 32.8505 37.5154 33.5391 35.935 33.7423C35.7205 33.7648 35.4948 33.7874 35.2803 33.7987C35.1787 33.7987 35.0771 33.81 34.9642 33.81C33.1241 33.81 31.363 33.1327 29.9745 31.8909C29.8052 31.7329 29.6133 31.6538 29.4101 31.6313C29.0827 31.6087 28.7779 31.7554 28.5973 32.0151C28.3264 32.3989 28.3828 32.9295 28.7215 33.2343C30.4599 34.8034 32.6613 35.6501 34.9642 35.6501C35.0884 35.6501 35.2238 35.6501 35.348 35.6388C35.6189 35.6275 35.8899 35.6049 36.1608 35.5711C38.1476 35.3114 39.9651 34.4422 41.4101 33.0536C41.5907 32.873 41.6923 32.6247 41.6923 32.365C41.681 32.0941 41.5568 31.857 41.3536 31.6877Z" fill="white"/>
<path d="M43.2163 18.491C41.4778 15.4205 38.2266 13.603 34.7158 13.7497C34.569 13.761 34.4336 13.761 34.2868 13.7723C31.2727 14.0319 28.5634 15.7478 27.0394 18.3781C26.8249 18.7507 26.8927 19.2135 27.1974 19.4957L27.22 19.5183C27.4006 19.6876 27.6264 19.7779 27.8748 19.7666C28.1909 19.7554 28.4731 19.586 28.6311 19.3151C29.8616 17.2041 32.0403 15.8269 34.4562 15.6124C34.569 15.6011 34.6819 15.5898 34.7948 15.5898C37.617 15.4769 40.236 16.9444 41.6245 19.4167C41.7826 19.6989 42.0874 19.8795 42.4148 19.8795C42.426 19.8795 42.4373 19.8795 42.4486 19.8795C42.8212 19.8682 43.1485 19.6312 43.2614 19.2699L43.2727 19.2361C43.363 18.9877 43.3404 18.7168 43.2163 18.491Z" fill="white"/>
</svg>
